<svg width="256" height="256" viewBox="0 0 256 256" xmlns="http://www.w3.org/2000/svg">
  <path d="M127.5 25C109.509 25 91.8355 29.7352 76.2546 38.7297C60.6737 47.7242 47.7347 60.6612 38.7377 76.2407C29.7407 91.8201 25.0028 109.493 24.9999 127.484C24.9971 145.475 29.7295 163.149 38.7216 178.731L127.5 127.5L127.5 25Z" fill="#E8EBEE" />
  <path d="M216.268 178.75C225.263 163.17 229.999 145.496 230 127.505C230.001 109.515 225.267 91.8406 216.273 76.2593C207.279 60.678 194.343 47.7382 178.764 38.7404C163.185 29.7427 145.512 25.0038 127.521 25L127.5 127.5L216.268 178.75Z" fill="#33CA7F" />
  <path d="M38.7324 178.75C47.7277 194.33 60.6654 207.269 76.2453 216.265C91.8252 225.261 109.499 229.998 127.489 230C145.48 230.002 163.154 225.269 178.736 216.276C194.318 207.283 207.258 194.347 216.257 178.769L127.5 127.5L38.7324 178.75Z" fill="#003844" />
</svg>
  